<svg display="none" xmlns="http://www.w3.org/2000/svg">
    <symbol viewBox="0 0 79.5652 23.04" fill="none" id="logo-icon">
        <path d="M28.4163 0L23.9163 0L23.9163 22.68L28.4163 22.68L28.4163 0ZM31.3493 3.51C31.3493 2.79 31.5993 2.18 32.0993 1.68C32.6193 1.16 33.2393 0.900001 33.9593 0.900001C34.6793 0.900001 35.2893 1.16 35.7893 1.68C36.3093 2.18 36.5693 2.79 36.5693 3.51C36.5693 4.23 36.3093 4.85 35.7893 5.37C35.2893 5.87 34.6793 6.12 33.9593 6.12C33.2393 6.12 32.6193 5.87 32.0993 5.37C31.5993 4.85 31.3493 4.23 31.3493 3.51ZM55.8122 3.51Q55.8122 2.93671 56.0235 2.4564Q56.2103 2.03188 56.5622 1.68C57.0822 1.16 57.7022 0.900001 58.4222 0.900001C59.1422 0.900001 59.7522 1.16 60.2522 1.68C60.7722 2.18 61.0322 2.79 61.0322 3.51C61.0322 4.23 60.7722 4.85 60.2522 5.37C59.7522 5.87 59.1422 6.12 58.4222 6.12C57.7022 6.12 57.0822 5.87 56.5622 5.37Q56.1846 4.97731 55.9971 4.50858Q55.8122 4.04626 55.8122 3.51ZM9.18 1.44L13.05 1.44L22.29 22.68L17.01 22.68L15.18 18.18L6.93 18.18L5.16 22.68L0 22.68L9.18 1.44ZM10.98 7.62L8.4 14.22L13.59 14.22L10.98 7.62ZM63.9952 12.24C63.5752 13.18 63.3652 14.23 63.3652 15.39C63.3652 16.55 63.5752 17.6 63.9952 18.54Q64.4684 19.5993 65.1957 20.4384Q65.4365 20.7163 65.7052 20.97C66.4452 21.63 67.3052 22.14 68.2852 22.5C69.2852 22.86 70.3452 23.04 71.4652 23.04C72.5852 23.04 73.6352 22.86 74.6152 22.5C75.6152 22.14 76.4752 21.63 77.1952 20.97C77.9352 20.29 78.5152 19.48 78.9352 18.54Q79.5652 17.13 79.5652 15.39Q79.5652 13.65 78.9352 12.24C78.5152 11.3 77.9352 10.5 77.1952 9.84C76.4752 9.16 75.6152 8.64 74.6152 8.28C73.6352 7.92 72.5852 7.74 71.4652 7.74C70.3452 7.74 69.2852 7.92 68.2852 8.28Q67.1826 8.68501 66.2826 9.36001Q65.9827 9.58501 65.7052 9.84C64.9852 10.5 64.4152 11.3 63.9952 12.24ZM31.7093 8.1L36.2093 8.1L36.2093 22.68L31.7093 22.68L31.7093 8.1ZM42.7723 8.1L37.9123 8.1L43.9423 22.68L48.7123 22.68L54.4723 8.1L49.9423 8.1L46.5223 18L46.4623 18L42.7723 8.1ZM56.1722 8.1L60.6722 8.1L60.6722 22.68L56.1722 22.68L56.1722 8.1ZM68.7952 18.06C68.1752 17.38 67.8652 16.49 67.8652 15.39C67.8652 14.29 68.1752 13.4 68.7952 12.72Q68.9871 12.5161 69.2089 12.353Q70.097 11.7 71.4652 11.7C72.6052 11.7 73.4852 12.04 74.1052 12.72Q74.3083 12.9358 74.4685 13.1799Q75.0652 14.0891 75.0652 15.39Q75.0652 16.6909 74.4684 17.6001Q74.3083 17.8442 74.1052 18.06C73.4852 18.74 72.6052 19.08 71.4652 19.08Q70.097 19.08 69.2089 18.427Q68.9871 18.2639 68.7952 18.06Z"
              fill="rgb(1,153,109)" fill-rule="evenodd"/>
    </symbol>
    <symbol width="72" height="73" viewBox="0 0 72 73" id="play-icon">
        <path d="M35.5913 0.40329C16.0068 0.40329 0.0756836 16.5572 0.0756836 36.4122C0.0756836 56.2672 16.0068 72.4211 35.5913 72.4211C55.1758 72.4211 71.107 56.2672 71.107 36.4122C71.107 16.5572 55.1758 0.40329 35.5913 0.40329ZM35.5913 69.4204C17.6398 69.4204 3.03527 54.613 3.03527 36.4122C3.03527 18.2114 17.6398 3.40399 35.5913 3.40399C53.5428 3.40399 68.1474 18.2114 68.1474 36.4122C68.1474 54.613 53.5428 69.4204 35.5913 69.4204Z"/>
        <path d="M49.7107 35.1506L28.9933 21.6473C28.5395 21.347 27.9528 21.3308 27.4846 21.5916C27.0076 21.8553 26.7128 22.3595 26.7128 22.9089V49.9156C26.7128 50.465 27.0076 50.9691 27.4846 51.2328C27.7042 51.3545 27.9499 51.416 28.1927 51.416C28.4701 51.416 28.7505 51.3368 28.9933 51.1771L49.7107 37.6738C50.1327 37.3984 50.3899 36.9221 50.3899 36.4122C50.3899 35.9023 50.1327 35.4262 49.7107 35.1506ZM29.6724 47.1668V25.6576L46.173 36.4122L29.6724 47.1668Z"/>
    </symbol>
    <symbol viewBox="0 0 33 19.1875" id="burger-icon">
        <g>
            <rect id="Rectangle" width="33.000000" height="3.837209" x="0.000000" y="0.000000" fill="rgb(0,0,0)"/>
            <rect id="Rectangle" width="33.000000" height="3.837209" x="0.000000" y="7.673828" fill="rgb(0,0,0)"/>
            <rect id="Rectangle" width="33.000000" height="3.837209" x="0.000000" y="15.349609" fill="rgb(0,0,0)"/>
        </g>
    </symbol>
    <symbol viewBox="0 0 22.873 22.2441" id="cross-icon">
        <g>
            <rect id="Rectangle" width="27.371525" height="3.800000" x="0.000000" y="0.000000"
                  fill="rgb(130.284,130.284,130.284)"
                  transform="matrix(0.707107,0.707107,-0.707107,0.707107,2.68701,0)"/>
            <rect id="Rectangle" width="27.371525" height="3.800000" x="0.000000" y="0.000000"
                  fill="rgb(130.284,130.284,130.284)"
                  transform="matrix(0.707107,-0.707107,0.707107,0.707107,0.831055,19.5566)"/>
        </g>
    </symbol>
</svg>
